# Made in Blockbench 4.12.6
mtllib portait.mtl

o cuboid
v 0.6875 0.29374999999999996 0.9375
v 0.6875 0.29374999999999996 -0.9375
v 0.6875 0.20625000000000002 0.9375
v 0.6875 0.20625000000000002 -0.9375
v -0.6875 0.29374999999999996 0.9375
v -0.6875 0.29374999999999996 -0.9375
v -0.6875 0.20625000000000002 0.9375
v -0.6875 0.20625000000000002 -0.9375
v 0.6000000000000001 0.29374999999999996 0.8625
v 0.6000000000000001 0.29374999999999996 -0.8625
v -0.6000000000000001 0.29374999999999996 0.8625
v -0.6000000000000001 0.29374999999999996 -0.8625
v 0.6000000000000001 0.24375000000000033 0.8625
v 0.6000000000000001 0.24375000000000033 -0.8625
v -0.6000000000000001 0.24375000000000033 0.8625
v -0.6000000000000001 0.24375000000000033 -0.8625
vt 0.78125 0.515625
vt 0.3125 0.515625
vt 0.3125 0.5
vt 0.78125 0.5
vt 0.78125 0.46875
vt 0.78125 0.484375
vt 0.3125 0.484375
vt 0.3125 0.46875
vt 0 0.078125
vt 0.296875 0.078125
vt 0.296875 0.515625
vt 0 0.515625
vt 0.34375 0.53125
vt 0.34375 1
vt 0 1
vt 0 0.53125
vt 0.65625 0.375
vt 0.65625 0.390625
vt 0.3125 0.390625
vt 0.3125 0.375
vt 0.65625 0.359375
vt 0.3125 0.359375
vt 0.3125 0.34375
vt 0.65625 0.34375
vt 0.68125 0.55
vt 0.38125000000000003 0.55
vt 0.359375 0.53125
vt 0.703125 0.53125
vt 0.68125 0.98125
vt 0.68125 0.55
vt 0.703125 0.53125
vt 0.703125 1
vt 0.38125000000000003 0.98125
vt 0.68125 0.98125
vt 0.703125 1
vt 0.359375 1
vt 0.38125000000000003 0.55
vt 0.38125000000000003 0.98125
vt 0.359375 1
vt 0.359375 0.53125
vt 0.3125 0.3125
vt 0.609375 0.3125
vt 0.609375 0.328125
vt 0.3125 0.328125
vt 0.3125 0.4375
vt 0.75 0.4375
vt 0.75 0.453125
vt 0.3125 0.453125
vt 0.671875 0.375
vt 0.96875 0.375
vt 0.96875 0.390625
vt 0.671875 0.390625
vt 0.3125 0.40625
vt 0.75 0.40625
vt 0.75 0.421875
vt 0.3125 0.421875
vn 1 0 0
vn -1 0 0
vn 0 1 0
vn 0 -1 0
vn 0 0 1
vn 0 0 -1
vn 0 1 0
vn 0 1 0
vn 0 1 0
vn 0 1 0
vn 0 0 -1
vn -1 0 0
vn 0 0 1
vn 1 0 0
usemtl m_08116b36-4277-0c64-7326-88171e917fdf
f 2/1/1 1/2/1 3/3/1 4/4/1
f 7/5/2 5/6/2 6/7/2 8/8/2
f 15/9/3 13/10/3 14/11/3 16/12/3
f 4/13/4 3/14/4 7/15/4 8/16/4
f 3/17/5 1/18/5 5/19/5 7/20/5
f 6/21/6 2/22/6 4/23/6 8/24/6
f 9/25/7 11/26/7 5/27/7 1/28/7
f 10/29/8 9/30/8 1/31/8 2/32/8
f 12/33/9 10/34/9 2/35/9 6/36/9
f 11/37/10 12/38/10 6/39/10 5/40/10
f 13/41/11 15/42/11 11/43/11 9/44/11
f 14/45/12 13/46/12 9/47/12 10/48/12
f 16/49/13 14/50/13 10/51/13 12/52/13
f 15/53/14 16/54/14 12/55/14 11/56/14
o cube
v 0.74375 0.2500000000000002 0.9999999999999993
v 0.74375 0.2500000000000002 0.8750000000000002
v 0.74375 0.2500000000000002 0.9999999999999993
v 0.74375 0.2500000000000002 0.8750000000000002
v 0.61875 0.2500000000000002 0.8750000000000002
v 0.61875 0.2500000000000002 0.9999999999999993
v 0.61875 0.2500000000000002 0.8750000000000002
v 0.61875 0.2500000000000002 0.9999999999999993
vt 0 1
vt 0.03125 1
vt 0.03125 1
vt 0 1
vt 0 1
vt 0.03124999999999975 1
vt 0.03124999999999975 1
vt 0 1
vt 0 1
vt 0.03125 1
vt 0.03125 1
vt 0 1
vt 0 1
vt 0.03124999999999975 1
vt 0.03124999999999975 1
vt 0 1
vt 0 1
vt 0.03125 1
vt 0.03125 0.9687500000000002
vt 0 0.9687500000000002
vt 0 1
vt 0.03125 1
vt 0.03125 0.9687500000000002
vt 0 0.9687500000000002
vn 0 0 -1
vn 1 0 0
vn 0 0 1
vn -1 0 0
vn 0 1 0
vn 0 -1 0
usemtl m_08116b36-4277-0c64-7326-88171e917fdf
f 20/60/15 23/59/15 21/58/15 18/57/15
f 19/64/16 20/63/16 18/62/16 17/61/16
f 24/68/17 19/67/17 17/66/17 22/65/17
f 23/72/18 24/71/18 22/70/18 21/69/18
f 22/76/19 17/75/19 18/74/19 21/73/19
f 23/80/20 20/79/20 19/78/20 24/77/20
o cube
v -0.61875 0.2500000000000002 0.9999999999999993
v -0.61875 0.2500000000000002 0.8750000000000002
v -0.61875 0.2500000000000002 0.9999999999999993
v -0.61875 0.2500000000000002 0.8750000000000002
v -0.74375 0.2500000000000002 0.8750000000000002
v -0.74375 0.2500000000000002 0.9999999999999993
v -0.74375 0.2500000000000002 0.8750000000000002
v -0.74375 0.2500000000000002 0.9999999999999993
vt 0.03125 1
vt 0 1
vt 0 1
vt 0.03125 1
vt 0.03124999999999975 1
vt 0 1
vt 0 1
vt 0.03124999999999975 1
vt 0.03125 1
vt 0 1
vt 0 1
vt 0.03125 1
vt 0.03124999999999975 1
vt 0 1
vt 0 1
vt 0.03124999999999975 1
vt 0.03125 1
vt 0 1
vt 0 0.9687500000000002
vt 0.03125 0.9687500000000002
vt 0.03125 1
vt 0 1
vt 0 0.9687500000000002
vt 0.03125 0.9687500000000002
vn 0 0 -1
vn 1 0 0
vn 0 0 1
vn -1 0 0
vn 0 1 0
vn 0 -1 0
usemtl m_08116b36-4277-0c64-7326-88171e917fdf
f 28/84/21 31/83/21 29/82/21 26/81/21
f 27/88/22 28/87/22 26/86/22 25/85/22
f 32/92/23 27/91/23 25/90/23 30/89/23
f 31/96/24 32/95/24 30/94/24 29/93/24
f 30/100/25 25/99/25 26/98/25 29/97/25
f 31/104/26 28/103/26 27/102/26 32/101/26
o cube
v -0.6187500000000011 0.2500000000000002 -0.9999999999999998
v -0.74375 0.2500000000000002 -0.9999999999999998
v -0.6187500000000011 0.2500000000000002 -0.9999999999999998
v -0.74375 0.2500000000000002 -0.9999999999999998
v -0.74375 0.2500000000000002 -0.8749999999999998
v -0.6187500000000011 0.2500000000000002 -0.8749999999999998
v -0.74375 0.2500000000000002 -0.8749999999999998
v -0.6187500000000011 0.2500000000000002 -0.8749999999999998
vt 0.03125 1
vt 0.0625 1
vt 0.0625 1
vt 0.03125 1
vt 0.03124999999999975 1
vt 0.06249999999999947 1
vt 0.06249999999999947 1
vt 0.03124999999999975 1
vt 0.03125 1
vt 0.0625 1
vt 0.0625 1
vt 0.03125 1
vt 0.03124999999999975 1
vt 0.06249999999999947 1
vt 0.06249999999999947 1
vt 0.03124999999999975 1
vt 0.03125 1
vt 0.0625 1
vt 0.0625 0.9687500000000002
vt 0.03125 0.9687500000000002
vt 0.03125 1
vt 0.0625 1
vt 0.0625 0.9687500000000002
vt 0.03125 0.9687500000000002
vn -1 0 -2.220446049250313e-16
vn 2.220446049250313e-16 0 -1
vn 1 0 2.220446049250313e-16
vn -2.220446049250313e-16 0 1
vn 0 1 0
vn 0 -1 0
usemtl m_08116b36-4277-0c64-7326-88171e917fdf
f 36/108/27 39/107/27 37/106/27 34/105/27
f 35/112/28 36/111/28 34/110/28 33/109/28
f 40/116/29 35/115/29 33/114/29 38/113/29
f 39/120/30 40/119/30 38/118/30 37/117/30
f 38/124/31 33/123/31 34/122/31 37/121/31
f 39/128/32 36/127/32 35/126/32 40/125/32
o cube
v 0.7562500000000001 0.2500000000000002 -0.8750000000000009
v 0.7562500000000001 0.2500000000000002 -0.9999999999999998
v 0.7562500000000001 0.2500000000000002 -0.8750000000000009
v 0.7562500000000001 0.2500000000000002 -0.9999999999999998
v 0.6312500000000001 0.2500000000000002 -0.9999999999999998
v 0.6312500000000001 0.2500000000000002 -0.8750000000000009
v 0.6312500000000001 0.2500000000000002 -0.9999999999999998
v 0.6312500000000001 0.2500000000000002 -0.8750000000000009
vt 0.03125 1
vt 0.06250000000000003 1
vt 0.06250000000000003 1
vt 0.03125 1
vt 0.03124999999999975 1
vt 0.06249999999999947 1
vt 0.06249999999999947 1
vt 0.03124999999999975 1
vt 0.03125 1
vt 0.06250000000000003 1
vt 0.06250000000000003 1
vt 0.03125 1
vt 0.03124999999999975 1
vt 0.06249999999999947 1
vt 0.06249999999999947 1
vt 0.03124999999999975 1
vt 0.03125 1
vt 0.06250000000000003 1
vt 0.06250000000000003 0.9687500000000002
vt 0.03125 0.9687500000000002
vt 0.03125 1
vt 0.06250000000000003 1
vt 0.06250000000000003 0.9687500000000002
vt 0.03125 0.9687500000000002
vn 0 0 -1
vn 1 0 0
vn 0 0 1
vn -1 0 0
vn 0 1 0
vn 0 -1 0
usemtl m_08116b36-4277-0c64-7326-88171e917fdf
f 44/132/33 47/131/33 45/130/33 42/129/33
f 43/136/34 44/135/34 42/134/34 41/133/34
f 48/140/35 43/139/35 41/138/35 46/137/35
f 47/144/36 48/143/36 46/142/36 45/141/36
f 46/148/37 41/147/37 42/146/37 45/145/37
f 47/152/38 44/151/38 43/150/38 48/149/38