# Blender 4.5.3 LTS
# www.blender.org
mtllib glass5.mtl
o Cylinder.004
v -17.693514 0.020770 -1.212790
v -17.693514 0.158798 -1.212790
v -16.835941 0.020770 -0.857572
v -16.835941 0.158798 -0.857572
v -16.480724 0.020770 -0.000000
v -16.480724 0.158798 -0.000000
v -16.835941 0.020770 0.857572
v -16.835941 0.158798 0.857572
v -17.693514 0.020770 1.212789
v -17.693514 0.158798 1.212789
v -18.551086 0.020770 0.857572
v -18.551086 0.158798 0.857572
v -18.906303 0.020770 -0.000000
v -18.906303 0.158798 -0.000000
v -18.551086 0.020770 -0.857572
v -18.551086 0.158798 -0.857572
v -17.022089 0.237603 -0.671426
v -17.693514 0.237603 -0.949540
v -16.743975 0.237603 -0.000000
v -17.022089 0.237603 0.671426
v -17.693514 0.237603 0.949539
v -18.364939 0.237603 0.671426
v -18.643053 0.237603 -0.000000
v -18.364939 0.237603 -0.671426
v -17.604242 0.300648 -0.089272
v -17.693514 0.300648 -0.126250
v -17.567265 0.300648 -0.000000
v -17.604242 0.300648 0.089272
v -17.693514 0.300648 0.126250
v -17.782785 0.300648 0.089272
v -17.819763 0.300648 -0.000000
v -17.782785 0.300648 -0.089272
v -17.604242 2.444160 -0.089272
v -17.693514 2.444160 -0.126250
v -17.567265 2.444160 -0.000000
v -17.604242 2.444160 0.089272
v -17.693514 2.444160 0.126250
v -17.782785 2.444160 0.089272
v -17.819763 2.444160 -0.000000
v -17.782785 2.444160 -0.089272
v -16.610712 3.578960 -1.082801
v -17.693514 3.578960 -1.531313
v -16.162201 3.578960 -0.000000
v -16.610712 3.578960 1.082801
v -17.693514 3.578960 1.531312
v -18.776314 3.578960 1.082801
v -19.224827 3.578960 -0.000000
v -18.776314 3.578960 -1.082801
v -18.950436 3.286931 -0.000000
v -18.582293 3.286931 -0.888779
v -17.693514 3.286931 1.256923
v -18.582293 3.286931 0.888778
v -16.436590 3.286931 -0.000000
v -16.804735 3.286931 0.888778
v -17.693514 3.286931 -1.256923
v -16.804735 3.286931 -0.888779
v -17.874268 2.832676 -0.180754
v -17.874268 2.832676 0.180753
v -17.512760 2.832676 0.180753
v -17.512760 2.832676 -0.180754
v -17.949139 2.832676 -0.000000
v -17.693514 2.832676 0.255624
v -17.437889 2.832676 -0.000000
v -17.693514 2.832676 -0.255624
v -17.125975 5.929994 -0.567539
v -17.693514 5.929994 -0.802622
v -16.890892 5.929994 -0.000000
v -17.125975 5.929994 0.567539
v -17.693514 5.929994 0.802622
v -18.261053 5.929994 0.567539
v -18.496136 5.929994 -0.000000
v -18.261053 5.929994 -0.567539
v -18.724827 4.362638 -1.031314
v -18.553839 5.146317 -0.860326
v -17.693514 5.146316 -1.216685
v -17.693514 4.362638 -1.458498
v -18.724827 4.362638 1.031314
v -18.553839 5.146317 0.860326
v -18.910198 5.146316 -0.000000
v -19.152012 4.362638 -0.000000
v -16.662199 4.362638 1.031314
v -16.833187 5.146317 0.860326
v -17.693514 5.146316 1.216685
v -17.693514 4.362638 1.458497
v -16.662199 4.362638 -1.031314
v -16.833187 5.146317 -0.860326
v -16.476828 5.146316 -0.000000
v -16.235016 4.362638 -0.000000
v -17.075962 5.929994 -0.617551
v -17.693514 5.929994 -0.873349
v -16.820166 5.929994 -0.000000
v -17.075962 5.929994 0.617551
v -17.693514 5.929994 0.873348
v -18.311064 5.929994 0.617551
v -18.566862 5.929994 -0.000000
v -18.311064 5.929994 -0.617551
v -16.666451 3.584739 -1.027061
v -17.693512 3.584739 -1.452485
v -16.241028 3.584739 -0.000000
v -16.666451 3.584739 1.027061
v -17.693512 3.584739 1.452484
v -18.720573 3.584739 1.027061
v -19.145996 3.584739 -0.000000
v -18.720573 3.584739 -1.027061
v -17.542065 2.866032 -0.151447
v -17.693512 2.866032 -0.214178
v -17.479334 2.866032 -0.000000
v -17.542065 2.866032 0.151447
v -17.693512 2.866032 0.214178
v -17.844959 2.866032 0.151447
v -17.907690 2.866032 -0.000000
v -17.844959 2.866032 -0.151447
vn 0.3827 -0.0000 -0.9239
vn 0.9239 -0.0000 -0.3827
vn 0.9239 -0.0000 0.3827
vn 0.3827 -0.0000 0.9239
vn -0.3827 -0.0000 0.9239
vn -0.9239 -0.0000 0.3827
vn -0.1180 0.9513 -0.2848
vn -0.9239 -0.0000 -0.3827
vn -0.3827 -0.0000 -0.9239
vn -0.0000 -1.0000 -0.0000
vn -0.0763 0.9966 -0.0316
vn 0.1180 0.9513 -0.2848
vn 0.2848 0.9513 0.1180
vn -0.2848 0.9513 0.1180
vn 0.1180 0.9513 0.2848
vn -0.2848 0.9513 -0.1180
vn 0.2848 0.9513 -0.1180
vn -0.1180 0.9513 0.2848
vn -0.0316 0.9966 0.0763
vn 0.0763 0.9966 0.0316
vn 0.0316 0.9966 -0.0763
vn -0.0316 0.9966 -0.0763
vn -0.0763 0.9966 0.0316
vn 0.0316 0.9966 0.0763
vn 0.0763 0.9966 -0.0316
vn -0.6977 -0.6555 -0.2890
vn -0.3547 0.3752 -0.8564
vn -0.2890 -0.6555 0.6977
vn 0.6977 -0.6555 0.2890
vn 0.2890 -0.6555 -0.6977
vn -0.2890 -0.6555 -0.6977
vn -0.6977 -0.6555 0.2890
vn 0.2890 -0.6555 0.6977
vn 0.6977 -0.6555 -0.2890
vn 0.4072 -0.8976 -0.1687
vn 0.1687 -0.8976 0.4072
vn -0.4072 -0.8976 0.1687
vn -0.1687 -0.8976 -0.4072
vn 0.1687 -0.8976 -0.4072
vn 0.4072 -0.8976 0.1687
vn -0.1687 -0.8976 0.4072
vn -0.4072 -0.8976 -0.1687
vn -0.8830 -0.2940 -0.3658
vn -0.3658 -0.2940 0.8830
vn 0.8830 -0.2940 0.3658
vn 0.3658 -0.2940 -0.8830
vn -0.3658 -0.2940 -0.8830
vn -0.8830 -0.2940 0.3658
vn 0.3658 -0.2940 0.8830
vn 0.8830 -0.2940 -0.3658
vn -0.3707 -0.2480 0.8950
vn -0.8564 0.3752 0.3547
vn 0.3547 0.3752 0.8564
vn 0.8564 0.3752 -0.3547
vn -0.8564 0.3752 -0.3547
vn -0.3547 0.3752 0.8564
vn 0.8564 0.3752 0.3547
vn 0.3547 0.3752 -0.8564
vn 0.3813 0.0855 -0.9205
vn 0.3680 0.2742 -0.8885
vn 0.9205 0.0855 0.3813
vn 0.8885 0.2742 0.3680
vn -0.3813 0.0855 0.9205
vn -0.3680 0.2742 0.8885
vn -0.9205 0.0855 -0.3813
vn -0.8885 0.2742 -0.3680
vn 0.9205 0.0855 -0.3813
vn 0.8885 0.2742 -0.3680
vn 0.3813 0.0855 0.9205
vn 0.3680 0.2742 0.8885
vn -0.9205 0.0855 0.3813
vn -0.8885 0.2742 0.3680
vn -0.3813 0.0855 -0.9205
vn -0.3680 0.2742 -0.8885
vn -0.0000 1.0000 -0.0000
vn 0.4915 0.8468 0.2036
vn 0.3707 -0.2480 0.8950
vn 0.8950 -0.2480 -0.3707
vn -0.3707 -0.2480 -0.8950
vn -0.8950 -0.2480 0.3707
vn 0.8950 -0.2480 0.3707
vn 0.3707 -0.2480 -0.8950
vn -0.8950 -0.2480 -0.3707
vn 0.2036 0.8468 -0.4915
vn -0.4915 0.8468 -0.2036
vn -0.2036 0.8468 0.4915
vn 0.2036 0.8468 0.4915
vn 0.4915 0.8468 -0.2036
vn -0.2036 0.8468 -0.4915
vn -0.4915 0.8468 0.2036
vt 1.000000 0.500000
vt 1.000000 1.000000
vt 0.875000 1.000000
vt 0.875000 0.500000
vt 0.750000 1.000000
vt 0.750000 0.500000
vt 0.625000 1.000000
vt 0.625000 0.500000
vt 0.500000 1.000000
vt 0.500000 0.500000
vt 0.375000 1.000000
vt 0.375000 0.500000
vt 0.250000 1.000000
vt 0.250000 0.500000
vt 0.000000 1.000000
vt 0.125000 1.000000
vt 0.125000 0.500000
vt 0.000000 0.500000
vt 0.750000 0.490000
vt 0.919706 0.419706
vt 0.990000 0.250000
vt 0.919706 0.080294
vt 0.750000 0.010000
vt 0.580294 0.080294
vt 0.510000 0.250000
vt 0.580294 0.419706
vt 0.375000 1.000000
vt 0.500000 1.000000
vt 0.625000 1.000000
vt 0.750000 1.000000
vt 0.375000 1.000000
vt 0.405962 0.405962
vt 0.250000 0.470564
vt 0.419706 0.419706
vt 0.250000 0.490000
vt 0.470564 0.250000
vt 0.490000 0.250000
vt 0.405962 0.094038
vt 0.419706 0.080294
vt 0.250000 0.029436
vt 0.250000 0.010000
vt 0.094038 0.094038
vt 0.080294 0.080294
vt 0.029436 0.250000
vt 0.010000 0.250000
vt 0.094038 0.405962
vt 0.080294 0.419706
s 0
f 1/1/1 2/2/1 4/3/1 3/4/1
f 3/4/2 4/3/2 6/5/2 5/6/2
f 5/6/3 6/5/3 8/7/3 7/8/3
f 7/8/4 8/7/4 10/9/4 9/10/4
f 9/10/5 10/9/5 12/11/5 11/12/5
f 11/12/6 12/11/6 14/13/6 13/14/6
f 2/15/7 16/16/7 24/16/7 18/15/7
f 13/14/8 14/13/8 16/16/8 15/17/8
f 15/17/9 16/16/9 2/15/9 1/18/9
f 1/19/10 3/20/10 5/21/10 7/22/10 9/23/10 11/24/10 13/25/10 15/26/10
f 24/16/11 23/13/11 31/13/11 32/16/11
f 4/3/12 2/2/12 18/2/12 17/3/12
f 8/7/13 6/5/13 19/5/13 20/7/13
f 14/13/14 12/11/14 22/11/14 23/13/14
f 10/9/15 8/7/15 20/7/15 21/9/15
f 16/16/16 14/13/16 23/13/16 24/16/16
f 6/5/17 4/3/17 17/3/17 19/5/17
f 12/11/18 10/9/18 21/9/18 22/11/18
f 31/13/6 30/11/6 38/11/6 39/13/6
f 22/11/19 21/9/19 29/9/19 30/11/19
f 20/7/20 19/5/20 27/5/20 28/7/20
f 17/3/21 18/2/21 26/2/21 25/3/21
f 18/15/22 24/16/22 32/16/22 26/15/22
f 23/13/23 22/11/23 30/11/23 31/13/23
f 21/9/24 20/7/24 28/7/24 29/9/24
f 19/5/25 17/3/25 25/3/25 27/5/25
f 50/16/26 49/13/26 47/13/26 48/16/26
f 29/9/4 28/7/4 36/7/4 37/9/4
f 27/5/2 25/3/2 33/3/2 35/5/2
f 32/16/8 31/13/8 39/13/8 40/16/8
f 30/11/5 29/9/5 37/9/5 38/11/5
f 28/7/3 27/5/3 35/5/3 36/7/3
f 25/3/1 26/2/1 34/2/1 33/3/1
f 26/15/9 32/16/9 40/16/9 34/15/9
f 75/15/27 74/16/27 96/16/27 90/15/27
f 52/27/28 51/28/28 45/9/28 46/11/28
f 54/29/29 53/30/29 43/5/29 44/7/29
f 56/3/30 55/2/30 42/2/30 41/3/30
f 55/15/31 50/16/31 48/16/31 42/15/31
f 49/13/32 52/27/32 46/11/32 47/13/32
f 51/28/33 54/29/33 44/7/33 45/9/33
f 53/30/34 56/3/34 41/3/34 43/5/34
f 63/5/35 60/3/35 56/3/35 53/30/35
f 62/9/36 59/7/36 54/29/36 51/28/36
f 61/13/37 58/31/37 52/27/37 49/13/37
f 64/15/38 57/16/38 50/16/38 55/15/38
f 60/3/39 64/2/39 55/2/39 56/3/39
f 59/7/40 63/5/40 53/30/40 54/29/40
f 58/31/41 62/9/41 51/28/41 52/27/41
f 57/16/42 61/13/42 49/13/42 50/16/42
f 40/16/43 39/13/43 61/13/43 57/16/43
f 38/11/44 37/9/44 62/9/44 58/31/44
f 36/7/45 35/5/45 63/5/45 59/7/45
f 33/3/46 34/2/46 64/2/46 60/3/46
f 34/15/47 40/16/47 57/16/47 64/15/47
f 39/13/48 38/11/48 58/31/48 61/13/48
f 37/9/49 36/7/49 59/7/49 62/9/49
f 35/5/50 33/3/50 60/3/50 63/5/50
f 65/32/51 66/33/51 98/33/51 97/32/51
f 79/13/52 78/11/52 94/11/52 95/13/52
f 83/9/53 82/7/53 92/7/53 93/9/53
f 87/5/54 86/3/54 89/3/54 91/5/54
f 74/16/55 79/13/55 95/13/55 96/16/55
f 78/11/56 83/9/56 93/9/56 94/11/56
f 82/7/57 87/5/57 91/5/57 92/7/57
f 86/3/58 75/2/58 90/2/58 89/3/58
f 41/3/59 42/2/59 76/2/59 85/3/59
f 85/3/60 76/2/60 75/2/60 86/3/60
f 44/7/61 43/5/61 88/5/61 81/7/61
f 81/7/62 88/5/62 87/5/62 82/7/62
f 46/11/63 45/9/63 84/9/63 77/11/63
f 77/11/64 84/9/64 83/9/64 78/11/64
f 48/16/65 47/13/65 80/13/65 73/16/65
f 73/16/66 80/13/66 79/13/66 74/16/66
f 43/5/67 41/3/67 85/3/67 88/5/67
f 88/5/68 85/3/68 86/3/68 87/5/68
f 45/9/69 44/7/69 81/7/69 84/9/69
f 84/9/70 81/7/70 82/7/70 83/9/70
f 47/13/71 46/11/71 77/11/71 80/13/71
f 80/13/72 77/11/72 78/11/72 79/13/72
f 42/15/73 48/16/73 73/16/73 76/15/73
f 76/15/74 73/16/74 74/16/74 75/15/74
f 66/33/75 65/32/75 89/34/75 90/35/75
f 65/32/75 67/36/75 91/37/75 89/34/75
f 67/36/75 68/38/75 92/39/75 91/37/75
f 68/38/75 69/40/75 93/41/75 92/39/75
f 69/40/75 70/42/75 94/43/75 93/41/75
f 70/42/75 71/44/75 95/45/75 94/43/75
f 71/44/75 72/46/75 96/47/75 95/45/75
f 72/46/75 66/33/75 90/35/75 96/47/75
f 104/46/76 103/44/76 111/44/76 112/46/76
f 66/33/77 72/46/77 104/46/77 98/33/77
f 71/44/78 70/42/78 102/42/78 103/44/78
f 69/40/79 68/38/79 100/38/79 101/40/79
f 67/36/80 65/32/80 97/32/80 99/36/80
f 72/46/81 71/44/81 103/44/81 104/46/81
f 70/42/82 69/40/82 101/40/82 102/42/82
f 68/38/83 67/36/83 99/36/83 100/38/83
f 105/32/75 106/33/75 112/46/75 111/44/75 110/42/75 109/40/75 108/38/75 107/36/75
f 102/42/84 101/40/84 109/40/84 110/42/84
f 100/38/85 99/36/85 107/36/85 108/38/85
f 97/32/86 98/33/86 106/33/86 105/32/86
f 98/33/87 104/46/87 112/46/87 106/33/87
f 103/44/88 102/42/88 110/42/88 111/44/88
f 101/40/89 100/38/89 108/38/89 109/40/89
f 99/36/90 97/32/90 105/32/90 107/36/90
