# Blender 4.5.3 LTS
# www.blender.org
mtllib glass4.mtl
o Cylinder.002
v -12.647759 -0.116524 -1.061339
v -12.647759 -0.015961 -1.061339
v -11.897280 -0.116524 -0.750480
v -11.897280 -0.015961 -0.750480
v -11.586421 -0.116524 -0.000000
v -11.586421 -0.015961 -0.000000
v -11.897280 -0.116524 0.750480
v -11.897280 -0.015961 0.750480
v -12.647759 -0.116524 1.061339
v -12.647759 -0.015961 1.061339
v -13.398239 -0.116524 0.750480
v -13.398239 -0.015961 0.750480
v -13.709098 -0.116524 -0.000000
v -13.709098 -0.015961 -0.000000
v -13.398239 -0.116524 -0.750480
v -13.398239 -0.015961 -0.750480
v -12.525786 0.251348 -0.121973
v -12.647759 0.251348 -0.172496
v -12.475264 0.251348 -0.000000
v -12.525786 0.251348 0.121973
v -12.647759 0.251348 0.172495
v -12.769732 0.251348 0.121973
v -12.820255 0.251348 -0.000000
v -12.769732 0.251348 -0.121973
v -12.498013 2.537339 -0.149747
v -12.647759 2.537339 -0.211774
v -12.435986 2.537339 -0.000000
v -12.498013 2.537339 0.149746
v -12.647759 2.537339 0.211773
v -12.797506 2.537339 0.149746
v -12.859533 2.537339 -0.000000
v -12.797506 2.537339 -0.149747
v -12.024701 3.252254 -0.623058
v -12.647759 3.252254 -0.881136
v -11.766623 3.252254 -0.000000
v -12.024701 3.252254 0.623057
v -12.647759 3.252254 0.881136
v -13.270817 3.252254 0.623057
v -13.528895 3.252254 -0.000000
v -13.270817 3.252254 -0.623058
v -11.823845 3.656376 -0.823915
v -12.647759 3.656376 -1.165191
v -11.482568 3.656376 -0.000000
v -11.823845 3.656376 0.823914
v -12.647759 3.656376 1.165191
v -13.471674 3.656376 0.823914
v -13.812950 3.656376 -0.000000
v -13.471674 3.656376 -0.823915
v -12.072656 6.039456 -0.575103
v -12.647758 6.039456 -0.813319
v -11.834440 6.039456 -0.000000
v -12.072656 6.039456 0.575103
v -12.647758 6.039456 0.813319
v -13.222862 6.039456 0.575103
v -13.461078 6.039456 -0.000000
v -13.222862 6.039456 -0.575103
v -11.807185 4.064481 0.840574
v -12.647759 4.064481 1.188751
v -11.807185 4.064481 -0.840574
v -11.459007 4.064481 -0.000000
v -13.836511 4.064481 -0.000000
v -13.488333 4.064481 -0.840574
v -13.488333 4.064481 0.840574
v -12.647759 4.064481 -1.188752
v -12.032930 6.039456 -0.614829
v -12.647758 6.039456 -0.869500
v -11.778259 6.039456 -0.000000
v -12.032930 6.039456 0.614829
v -12.647758 6.039456 0.869500
v -13.262588 6.039456 0.614829
v -13.517259 6.039456 -0.000000
v -13.262588 6.039456 -0.614829
v -11.852678 4.069316 -0.795081
v -12.647759 4.069316 -1.124414
v -11.523345 4.069316 -0.000000
v -11.852678 4.069316 0.795081
v -12.647759 4.069316 1.124414
v -13.442840 4.069316 0.795081
v -13.772173 4.069316 -0.000000
v -13.442840 4.069316 -0.795081
v -12.126068 3.249738 -0.521691
v -12.647759 3.249738 -0.737783
v -11.909976 3.249738 -0.000000
v -12.126068 3.249738 0.521691
v -12.647759 3.249738 0.737783
v -13.169451 3.249738 0.521691
v -13.385542 3.249738 -0.000000
v -13.169451 3.249738 -0.521691
v -12.525351 2.587771 -0.122409
v -12.647759 2.587771 -0.173112
v -12.474648 2.587771 -0.000000
v -12.525351 2.587771 0.122409
v -12.647759 2.587771 0.173112
v -12.770168 2.587771 0.122409
v -12.820871 2.587771 -0.000000
v -12.770168 2.587771 -0.122409
vn 0.3827 -0.0000 -0.9239
vn 0.9239 -0.0000 -0.3827
vn 0.9239 -0.0000 0.3827
vn 0.3827 -0.0000 0.9239
vn -0.3827 -0.0000 0.9239
vn -0.9239 -0.0000 0.3827
vn 0.1185 0.9509 0.2860
vn -0.9239 -0.0000 -0.3827
vn -0.3827 -0.0000 -0.9239
vn -0.0000 -1.0000 -0.0000
vn 0.3826 -0.0159 -0.9238
vn -0.2860 0.9509 -0.1185
vn 0.2860 0.9509 -0.1185
vn -0.1185 0.9509 0.2860
vn -0.1185 0.9509 -0.2860
vn 0.1185 0.9509 -0.2860
vn 0.2860 0.9509 0.1185
vn -0.2860 0.9509 0.1185
vn 0.6987 -0.6542 0.2894
vn -0.3826 -0.0159 -0.9238
vn -0.9238 -0.0159 0.3826
vn 0.3826 -0.0159 0.9238
vn 0.9238 -0.0159 -0.3826
vn -0.9238 -0.0159 -0.3826
vn -0.3826 -0.0159 0.9238
vn 0.9238 -0.0159 0.3826
vn -0.7748 -0.5446 -0.3209
vn 0.2894 -0.6542 -0.6987
vn -0.2894 -0.6542 -0.6987
vn -0.6987 -0.6542 0.2894
vn 0.2894 -0.6542 0.6987
vn 0.6987 -0.6542 -0.2894
vn -0.6987 -0.6542 -0.2894
vn -0.2894 -0.6542 0.6987
vn 0.3785 0.1477 0.9137
vn -0.3209 -0.5446 0.7748
vn 0.7748 -0.5446 0.3209
vn 0.3209 -0.5446 -0.7748
vn -0.3209 -0.5446 -0.7748
vn -0.7748 -0.5446 0.3209
vn 0.3209 -0.5446 0.7748
vn 0.7748 -0.5446 -0.3209
vn 0.9142 -0.1444 -0.3787
vn 0.9137 0.1477 -0.3785
vn -0.9137 0.1477 -0.3785
vn -0.3785 0.1477 0.9137
vn 0.9137 0.1477 0.3785
vn 0.3785 0.1477 -0.9137
vn -0.3785 0.1477 -0.9137
vn -0.9137 0.1477 0.3785
vn -0.9226 -0.0533 0.3821
vn -0.3821 -0.0533 -0.9226
vn 0.3821 -0.0533 -0.9226
vn 0.9226 -0.0533 0.3821
vn -0.3821 -0.0533 0.9226
vn -0.9226 -0.0533 -0.3821
vn 0.9226 -0.0533 -0.3821
vn 0.3821 -0.0533 0.9226
vn -0.0000 1.0000 -0.0000
vn -0.3508 0.3995 0.8469
vn -0.3787 -0.1444 -0.9142
vn -0.9142 -0.1444 0.3787
vn 0.9142 -0.1444 0.3787
vn 0.3787 -0.1444 -0.9142
vn -0.9142 -0.1444 -0.3787
vn -0.3787 -0.1444 0.9142
vn 0.3787 -0.1444 0.9142
vn 0.7256 0.6190 0.3006
vn 0.3508 0.3995 0.8469
vn 0.8469 0.3995 -0.3508
vn -0.3508 0.3995 -0.8469
vn -0.8469 0.3995 0.3508
vn 0.8469 0.3995 0.3508
vn 0.3508 0.3995 -0.8469
vn -0.8469 0.3995 -0.3508
vn 0.3006 0.6190 -0.7256
vn -0.7256 0.6190 -0.3006
vn -0.3006 0.6190 0.7256
vn 0.3006 0.6190 0.7256
vn 0.7256 0.6190 -0.3006
vn -0.3006 0.6190 -0.7256
vn -0.7256 0.6190 0.3006
vt 1.000000 0.500000
vt 1.000000 1.000000
vt 0.875000 1.000000
vt 0.875000 0.500000
vt 0.750000 1.000000
vt 0.750000 0.500000
vt 0.625000 1.000000
vt 0.625000 0.500000
vt 0.500000 1.000000
vt 0.500000 0.500000
vt 0.375000 1.000000
vt 0.375000 0.500000
vt 0.250000 1.000000
vt 0.250000 0.500000
vt 0.125000 1.000000
vt 0.125000 0.500000
vt 0.000000 1.000000
vt 0.000000 0.500000
vt 0.750000 0.490000
vt 0.919706 0.419706
vt 0.990000 0.250000
vt 0.919706 0.080294
vt 0.750000 0.010000
vt 0.580294 0.080294
vt 0.510000 0.250000
vt 0.580294 0.419706
vt 0.875000 1.000000
vt 0.025507 0.250000
vt 0.091260 0.091260
vt 0.375000 1.000000
vt 0.250000 0.474493
vt 0.408740 0.408740
vt 0.419706 0.419706
vt 0.250000 0.490000
vt 0.474493 0.250000
vt 0.490000 0.250000
vt 0.408740 0.091260
vt 0.419706 0.080294
vt 0.250000 0.025507
vt 0.250000 0.010000
vt 0.080294 0.080294
vt 0.010000 0.250000
vt 0.091260 0.408740
vt 0.080294 0.419706
s 0
f 1/1/1 2/2/1 4/3/1 3/4/1
f 3/4/2 4/3/2 6/5/2 5/6/2
f 5/6/3 6/5/3 8/7/3 7/8/3
f 7/8/4 8/7/4 10/9/4 9/10/4
f 9/10/5 10/9/5 12/11/5 11/12/5
f 11/12/6 12/11/6 14/13/6 13/14/6
f 10/9/7 8/7/7 20/7/7 21/9/7
f 13/14/8 14/13/8 16/15/8 15/16/8
f 15/16/9 16/15/9 2/17/9 1/18/9
f 1/19/10 3/20/10 5/21/10 7/22/10 9/23/10 11/24/10 13/25/10 15/26/10
f 17/3/11 18/2/11 26/2/11 25/3/11
f 16/15/12 14/13/12 23/13/12 24/15/12
f 6/5/13 4/3/13 17/3/13 19/5/13
f 12/11/14 10/9/14 21/9/14 22/11/14
f 2/17/15 16/15/15 24/15/15 18/17/15
f 4/3/16 2/2/16 18/2/16 17/3/16
f 8/7/17 6/5/17 19/5/17 20/7/17
f 14/13/18 12/11/18 22/11/18 23/13/18
f 28/7/19 27/5/19 35/5/19 36/7/19
f 18/17/20 24/15/20 32/15/20 26/17/20
f 23/13/21 22/11/21 30/11/21 31/13/21
f 21/9/22 20/7/22 28/7/22 29/9/22
f 19/5/23 17/3/23 25/3/23 27/5/23
f 24/15/24 23/13/24 31/13/24 32/15/24
f 22/11/25 21/9/25 29/9/25 30/11/25
f 20/7/26 19/5/26 27/5/26 28/7/26
f 40/15/27 39/13/27 47/13/27 48/15/27
f 25/3/28 26/2/28 34/2/28 33/27/28
f 26/17/29 32/15/29 40/15/29 34/17/29
f 31/13/30 30/11/30 38/11/30 39/13/30
f 29/9/31 28/7/31 36/7/31 37/9/31
f 27/5/32 25/3/32 33/27/32 35/5/32
f 32/15/33 31/13/33 39/13/33 40/15/33
f 30/11/34 29/9/34 37/9/34 38/11/34
f 58/9/35 57/7/35 68/7/35 69/9/35
f 38/11/36 37/9/36 45/9/36 46/11/36
f 36/7/37 35/5/37 43/5/37 44/7/37
f 33/27/38 34/2/38 42/2/38 41/3/38
f 34/17/39 40/15/39 48/15/39 42/17/39
f 39/13/40 38/11/40 46/11/40 47/13/40
f 37/9/41 36/7/41 44/7/41 45/9/41
f 35/5/42 33/27/42 41/3/42 43/5/42
f 55/28/43 54/29/43 78/29/43 79/28/43
f 60/5/44 59/3/44 65/3/44 67/5/44
f 62/15/45 61/13/45 71/13/45 72/15/45
f 63/30/46 58/9/46 69/9/46 70/11/46
f 57/7/47 60/5/47 67/5/47 68/7/47
f 59/3/48 64/2/48 66/2/48 65/3/48
f 64/17/49 62/15/49 72/15/49 66/17/49
f 61/13/50 63/30/50 70/11/50 71/13/50
f 47/13/51 46/11/51 63/30/51 61/13/51
f 42/17/52 48/15/52 62/15/52 64/17/52
f 41/3/53 42/2/53 64/2/53 59/3/53
f 44/7/54 43/5/54 60/5/54 57/7/54
f 46/11/55 45/9/55 58/9/55 63/30/55
f 48/15/56 47/13/56 61/13/56 62/15/56
f 43/5/57 41/3/57 59/3/57 60/5/57
f 45/9/58 44/7/58 57/7/58 58/9/58
f 50/31/59 49/32/59 65/33/59 66/34/59
f 49/32/59 51/35/59 67/36/59 65/33/59
f 51/35/59 52/37/59 68/38/59 67/36/59
f 52/37/59 53/39/59 69/40/59 68/38/59
f 53/39/59 54/29/59 70/41/59 69/40/59
f 54/29/59 55/28/59 71/42/59 70/41/59
f 55/28/59 56/43/59 72/44/59 71/42/59
f 56/43/59 50/31/59 66/34/59 72/44/59
f 73/32/60 74/31/60 82/31/60 81/32/60
f 53/39/61 52/37/61 76/37/61 77/39/61
f 51/35/62 49/32/62 73/32/62 75/35/62
f 56/43/63 55/28/63 79/28/63 80/43/63
f 54/29/64 53/39/64 77/39/64 78/29/64
f 52/37/65 51/35/65 75/35/65 76/37/65
f 49/32/66 50/31/66 74/31/66 73/32/66
f 50/31/67 56/43/67 80/43/67 74/31/67
f 88/43/68 87/28/68 95/28/68 96/43/68
f 74/31/69 80/43/69 88/43/69 82/31/69
f 79/28/70 78/29/70 86/29/70 87/28/70
f 77/39/71 76/37/71 84/37/71 85/39/71
f 75/35/72 73/32/72 81/32/72 83/35/72
f 80/43/73 79/28/73 87/28/73 88/43/73
f 78/29/74 77/39/74 85/39/74 86/29/74
f 76/37/75 75/35/75 83/35/75 84/37/75
f 89/32/59 90/31/59 96/43/59 95/28/59 94/29/59 93/39/59 92/37/59 91/35/59
f 86/29/76 85/39/76 93/39/76 94/29/76
f 84/37/77 83/35/77 91/35/77 92/37/77
f 81/32/78 82/31/78 90/31/78 89/32/78
f 82/31/79 88/43/79 96/43/79 90/31/79
f 87/28/80 86/29/80 94/29/80 95/28/80
f 85/39/81 84/37/81 92/37/81 93/39/81
f 83/35/82 81/32/82 89/32/82 91/35/82
